<svg xmlns="http://www.w3.org/2000/svg" version="1.1" xmlns:xlink="http://www.w3.org/1999/xlink" width="200" height="200"><svg xmlns="http://www.w3.org/2000/svg" version="1.1" xmlns:xlink="http://www.w3.org/1999/xlink" viewBox="0 0 200 200"><rect width="200" height="200" fill="url('#gradient')"></rect><defs><linearGradient id="SvgjsLinearGradient1005" gradientTransform="rotate(45 0.5 0.5)"><stop offset="0%" stop-color="#bd9b34"></stop><stop offset="100%" stop-color="#2c1f05"></stop></linearGradient></defs><g><g fill="#dcc685" transform="matrix(8.010556079170593,0,0,8.010556079170593,9.402019485036348,159.32039579963146)" stroke="#c5b278" stroke-width="0"><path d="M7.47 0L5.17-3.94L4.24-3.01L4.24 0L0.95 0L0.95-15.01L4.24-15.01L4.24-7.04L4.57-7.48L7.05-10.57L11.00-10.57L7.29-6.22L11.24 0L7.47 0ZM21.67-5.36L21.67-5.20Q21.67-2.60 20.60-1.20Q19.52 0.20 17.57 0.20L17.57 0.20Q15.96 0.20 14.97-1.08L14.97-1.08L14.83 0L11.88 0L11.88-15L15.18-15L15.18-9.72Q16.09-10.76 17.55-10.76L17.55-10.76Q19.52-10.76 20.60-9.35Q21.67-7.93 21.67-5.36L21.67-5.36ZM18.37-5.40L18.37-5.40Q18.37-6.92 17.96-7.57Q17.56-8.22 16.72-8.22L16.72-8.22Q15.61-8.22 15.18-7.37L15.18-7.37L15.18-3.17Q15.60-2.33 16.74-2.33L16.74-2.33Q17.90-2.33 18.21-3.47L18.21-3.47Q18.37-4.02 18.37-5.40Z"></path></g></g></svg><style>@media (prefers-color-scheme: light) { :root { filter: none; } }
@media (prefers-color-scheme: dark) { :root { filter: none; } }
</style></svg>